<svg xmlns="http://www.w3.org/2000/svg" version="1.1" xmlns:xlink="http://www.w3.org/1999/xlink" xmlns:svgjs="http://svgjs.dev/svgjs" width="100%" height="100%" viewBox="0 0 1000 600"><rect width="1000" height="600" x="0" y="0" fill="#f7f7f7"/><g><circle r="166.66666666666666" cx="279.5432993570963" cy="301.7655453994622" fill="#006838" transform="matrix(1.1074033446320677,0,0,1.1074033446320677,0,-34.17619548858403)"/><path d="M140.64566639119622 371.4025882415111L140.64566639119622 371.4025882415111Q130.89551643940263 371.4025882415111 125.72676224809034 365.1472209531616Q120.55800805677806 358.9212215863536 120.55800805677806 348.75992073297834L120.55800805677806 348.75992073297834Q120.55800805677806 340.742478152136 123.28922476014193 333.1068185513338L123.28922476014193 333.1068185513338Q123.72974358326513 331.63842247425646 124.25836617101298 329.4064604370989Q124.78698875876083 327.20386632148285 125.40371511113332 324.2377062457866L125.40371511113332 324.2377062457866Q126.25538483583819 319.15705581909896 129.8382712639069 312.4024338645431L129.8382712639069 312.4024338645431Q127.31263001133388 314.9280751171162 124.66951707259464 316.51394288035976Q122.02640413385541 318.0998106436033 121.17473440915055 318.0998106436033L121.17473440915055 318.0998106436033Q119.26581950894999 318.0998106436033 117.79742343187264 316.71951833115054Q116.3290273547953 315.3685939402394 116.53460280558612 312.8135847661248L116.53460280558612 312.8135847661248Q117.59184798108181 305.41286853765496 121.90893244768922 302.9753310497066Q126.25538483583819 300.56716148329974 133.4505256135172 298.4526711323083L133.4505256135172 298.4526711323083Q133.86167651509885 298.21772775997596 134.91892169059454 298.0121523091851Q135.97616686609024 297.8065768583943 137.67950631549996 297.60100140760346L137.67950631549996 297.60100140760346Q139.35347784336815 297.16048258448023 140.52819470503002 296.7493316828986Q141.7029115666919 296.33818078131696 142.11406246827357 296.10323740898457L142.11406246827357 296.10323740898457Q155.4470988481359 273.07878692041174 172.56859710685782 257.8368356403488L172.56859710685782 257.8368356403488Q189.69009536557974 242.18373345870424 208.60303683833598 234.48933801481894Q227.54534623263385 226.76557464939208 246.13524056843306 226.76557464939208L246.13524056843306 226.76557464939208Q252.71365499373962 226.76557464939208 258.0879846358427 229.93731017587913Q263.49168219948734 233.10904570236625 263.49168219948734 238.3952715798447L263.49168219948734 238.3952715798447Q263.49168219948734 240.30418648004525 263.0511633763642 241.56700710633174L263.0511633763642 241.56700710633174Q260.5255221237911 249.37887423638327 258.29356008663353 253.51975117374138Q256.0909659710175 257.63126018955796 252.2731361706164 261.4490899899591L252.2731361706164 261.4490899899591Q249.95307036883418 263.7691557917413 246.98691029313795 263.7691557917413L246.98691029313795 263.7691557917413Q244.4612690405649 263.7691557917413 244.4612690405649 261.21414661762674L244.4612690405649 261.21414661762674Q244.4612690405649 259.3345996389677 245.92966511764223 256.5740150140623L245.92966511764223 256.5740150140623Q246.37018394076546 256.16286411248063 247.19248574392878 255.3992981524004Q248.04415546863362 254.66510011386174 249.10140064412934 253.81343038915688L249.10140064412934 253.81343038915688Q253.12480589532123 250.43611941187896 255.35676793247882 247.7049027085151Q257.55936204809484 244.9443180836097 259.0571260467138 240.7153373816269L259.0571260467138 240.7153373816269Q260.5255221237911 236.2807812288533 255.65044714789434 234.57744177944357Q250.80474009353907 232.9034702515754 244.25569358977407 232.9034702515754L244.25569358977407 232.9034702515754Q228.6025914081295 232.9034702515754 212.00971573715543 240.50976193083608Q195.38747214463984 248.11605361009674 179.44069074757982 262.0658163423316Q163.46454142897824 276.0155790745664 149.92592959832507 295.04599223348885L149.92592959832507 295.04599223348885Q154.59542912343105 292.7259264317066 158.91251359003846 290.9344832176723Q163.2589659781874 289.1430400036379 167.48794668017018 287.645276005019L167.48794668017018 287.645276005019Q168.7507673064567 287.23412510343735 171.39388024519593 286.3824553787325Q174.03699318393518 285.5307856540276 178.06039843512713 284.70848385086435L178.06039843512713 284.70848385086435L184.40386948810126 283.2107198522454Q194.77074579226735 280.8906540504632 203.75732978398077 279.5103617380105Q212.74391377569412 278.1300694255578 220.14463000416396 278.1300694255578L220.14463000416396 278.1300694255578Q233.68324183481712 278.1300694255578 239.5861940646681 282.15347467674974L239.5861940646681 282.15347467674974Q241.49510896486868 283.41629530303624 239.5861940646681 284.47354047853196L239.5861940646681 284.47354047853196Q238.32337343838157 284.91405930165513 237.67727916446754 284.91405930165513L237.67727916446754 284.91405930165513Q236.62003398897184 284.91405930165513 235.35721336268534 284.2679650277411L235.35721336268534 284.2679650277411Q231.3338081114934 281.7423237751681 223.7275164322327 281.7423237751681L223.7275164322327 281.7423237751681Q211.0405743262844 281.7423237751681 183.99271858651963 289.34861545442874L183.99271858651963 289.34861545442874Q178.26597388591796 290.81701153150607 170.77715389282343 294.1062187441594Q163.2589659781874 297.39542595681263 155.97572143588377 301.1838878356722Q148.66310897203854 305.0017176360733 143.17130764376927 308.37902861335124L143.17130764376927 308.37902861335124Q138.9423269417865 315.3685939402394 136.62226114000427 320.4198764453855Q134.30219533822208 325.5005268720731 131.9527616148983 333.1068185513338L131.9527616148983 333.1068185513338Q129.42712036232527 340.742478152136 129.42712036232527 347.291524655901L129.42712036232527 347.291524655901Q129.42712036232527 355.54391060907574 133.33305392735102 360.38961766343095Q137.23898749237676 365.2646926393278 144.874647093179 365.2646926393278L144.874647093179 365.2646926393278Q156.5043440236316 365.2646926393278 172.363021656067 360.38961766343095L172.363021656067 360.38961766343095Q187.98675591617 355.30896723674334 202.25956578536184 347.37962842052565Q216.5323756545537 339.45028960430795 224.57918615693757 331.4328470234656L224.57918615693757 331.4328470234656Q227.10482740951062 328.877837849351 228.6025914081295 329.93508302484673L228.6025914081295 329.93508302484673L228.80816685892034 330.58117729876074Q228.80816685892034 331.63842247425646 227.10482740951062 333.3417619236662L227.10482740951062 333.3417619236662Q218.6468660055451 341.7997233276317 202.78818837310968 350.87441108396973L202.78818837310968 350.87441108396973Q192.45067999048513 356.80673123536224 181.23213396161418 361.4468628389267Q170.01358793274323 366.1163623640326 159.5586078639525 368.7594753027719Q149.10362779516174 371.4025882415111 140.64566639119622 371.4025882415111ZM305.34097039619184 300.56716148329974L305.34097039619184 300.56716148329974Q302.8153291436188 300.56716148329974 300.9064142434183 299.71549175859485L300.9064142434183 299.71549175859485Q295.2090374643581 298.0121523091851 289.2767173129656 292.52035098091585L289.2767173129656 292.52035098091585Q283.3737650831147 286.8229742018557 279.02731269496576 278.893635385638Q274.6808603068168 270.9642965694203 273.85855850365346 263.1230615178273L273.85855850365346 263.1230615178273Q273.62361513132106 262.2713917931224 273.62361513132106 261.0085711668359Q273.62361513132106 259.74575054054935 273.62361513132106 258.0424110911396L273.62361513132106 258.0424110911396Q273.62361513132106 230.78897990058402 307.89597957030645 230.78897990058402L307.89597957030645 230.78897990058402Q324.8119023782375 230.78897990058402 345.1051361634465 236.07520577806247Q365.3983699486555 241.36143165554094 392.270018159171 250.23054396108813L392.270018159171 250.23054396108813Q399.0246401137269 252.55060976287035 403.6647717172912 254.04837376148924Q408.3342712423973 255.51676983856657 410.4487615933886 256.16286411248063L410.4487615933886 256.16286411248063Q417.64390237106767 258.277354463472 423.7524300517095 258.277354463472L423.7524300517095 258.277354463472Q430.5364199278068 258.277354463472 433.70815545429383 255.63424152473277Q436.8798909807809 252.99112858599355 436.6743155299901 249.81939305950647L436.6743155299901 249.81939305950647L436.6743155299901 248.9677233348016Q436.6743155299901 246.41271416068702 438.1427116070675 246.41271416068702L438.1427116070675 246.41271416068702Q439.84605105647717 246.41271416068702 441.7255980351362 248.9677233348016L441.7255980351362 248.9677233348016Q442.57726775984105 250.0249685102973 442.57726775984105 251.93388341049786L442.57726775984105 251.93388341049786Q442.57726775984105 256.3684395632714 437.7315607054857 260.156901442131Q432.856485729589 263.97473124253213 422.93012824854617 263.97473124253213L422.93012824854617 263.97473124253213Q413.82607257066644 263.97473124253213 402.842469914128 261.0085711668359Q391.82949933604783 258.0424110911396 374.2968501757443 252.34503431207952L374.2968501757443 252.34503431207952Q354.6203427429077 246.00156325910538 341.93340063695945 242.7123560464521Q329.2464585310111 239.45251675534038 318.26285587447256 239.45251675534038L318.26285587447256 239.45251675534038Q292.4484528394527 239.45251675534038 285.48825543410607 262.0658163423316L285.48825543410607 262.0658163423316Q284.84216116019206 264.18030669332296 284.84216116019206 266.94089131822835L284.84216116019206 266.94089131822835Q284.84216116019206 272.22711719570685 287.6908495497221 278.893635385638Q290.5395379392521 285.5307856540276 294.76851864123495 290.72890776688143Q298.9974993432177 295.89766195819374 303.02090459440967 296.7493316828986L303.02090459440967 296.7493316828986L304.5186685930285 296.7493316828986Q309.5699510981746 296.7493316828986 309.5699510981746 298.6582465830992L309.5699510981746 298.6582465830992Q309.5699510981746 299.2749729354716 308.5127059226789 299.9210672093857L308.5127059226789 299.9210672093857Q307.2498852963924 300.56716148329974 305.34097039619184 300.56716148329974ZM318.879582226845 376.68881411898957L318.879582226845 376.68881411898957Q308.9532247458021 374.5743237679982 308.9532247458021 365.8814189917003L308.9532247458021 365.8814189917003Q308.9532247458021 361.65243828971745 311.0677150967935 354.69224088437085L311.0677150967935 354.69224088437085Q313.1822054477849 348.5543452821875 314.97364866181925 343.7967419924569Q316.7650918758536 339.0391387027263 318.46843132526334 335.6618277254484L318.46843132526334 335.6618277254484Q320.14240285313156 332.28451674817046 322.57994034108 328.05553604618774Q325.01747782902834 323.82655534420496 328.3947888063063 318.54032946672646L328.3947888063063 318.54032946672646L317.82233705134934 324.6488571473683Q315.09112034798545 326.1466211459872 312.97662999699406 327.20386632148285Q310.8621396460027 328.2611114969785 309.15880019659295 328.6722623985602L309.15880019659295 328.6722623985602Q308.9532247458021 328.6722623985602 308.8357530596359 328.7897340847264Q308.7476492950113 328.877837849351 308.5127059226789 328.877837849351L308.5127059226789 328.877837849351Q307.4554607471832 328.877837849351 307.4554607471832 327.20386632148285L307.4554607471832 327.20386632148285Q307.4554607471832 324.8838005197006 309.04132851042675 321.4771216208812Q310.6271962736703 318.0998106436033 312.12496027228923 317.04256546810757L312.12496027228923 317.04256546810757Q314.8561769756531 315.57416939103024 317.20561069897684 314.5169242155345Q319.52567650075906 313.45967904003885 321.1996480286273 313.0191602169156L321.1996480286273 313.0191602169156Q321.8457423025413 312.8135847661248 322.6974120272461 312.49053762916776Q323.549081751951 312.19685841375235 324.6063269274467 311.96191504141996L324.6063269274467 311.96191504141996Q326.48587390610567 311.34518868904746 329.6576094325928 310.0823680627609L329.6576094325928 310.0823680627609Q332.82934495907983 308.584604064142 334.7382598592804 308.37902861335124L334.7382598592804 308.37902861335124Q334.7382598592804 308.37902861335124 336.2360238578993 306.14706657619365Q337.7044199349766 303.94447246057763 340.6705800106729 299.509916307804L340.6705800106729 299.509916307804Q349.53969231622006 285.76572902636 351.65418266721144 281.9478992259589L351.65418266721144 281.9478992259589Q356.7348330938991 272.84384354807935 360.75823834509106 267.79256104293324L360.75823834509106 267.79256104293324Q363.0783041468733 264.6208255164462 367.30728484885606 264.6208255164462L367.30728484885606 264.6208255164462Q370.2734449245523 264.6208255164462 372.7990861771254 266.0892215935235Q375.3540953512399 267.55761767060085 375.3540953512399 269.2609571200106L375.3540953512399 269.2609571200106Q375.3540953512399 270.3182022955063 374.50242562653506 270.9642965694203L374.50242562653506 270.9642965694203Q368.57010547514255 276.0155790745664 360.43519120813403 285.23710643861216Q352.3002769411255 294.4292658811164 344.4590418895325 304.79614218528246L344.4590418895325 304.79614218528246Q361.37496469746355 300.33221811096735 376.1763971544032 300.33221811096735L376.1763971544032 300.33221811096735Q379.58307605322267 300.33221811096735 381.05147213030006 300.9783123848814L381.05147213030006 300.9783123848814Q382.7548115797097 302.0355575603771 382.7548115797097 302.8872272850819L382.7548115797097 302.8872272850819Q382.7548115797097 303.5039536374544 381.4626230318817 304.5611988129501L381.4626230318817 304.5611988129501Q380.8458966795093 305.0017176360733 379.8767552686382 305.2072930868641Q378.9369817793087 305.41286853765496 377.879736603813 305.6184439884458L377.879736603813 305.6184439884458Q369.8329261014291 306.058962811569 363.7243984207873 307.1162079870647Q357.586502818604 308.17345316256035 351.77165435337764 309.96489637659477Q345.95680588815134 311.7563395906291 338.76166511047234 314.72249966632535L338.76166511047234 314.72249966632535Q334.3271089576987 321.0659707192995 331.3609488820025 325.4124231074485Q328.3947888063063 329.7295075740559 326.48587390610567 333.4298656882908Q324.6063269274467 337.13022380252573 322.90298747803695 341.4766761906747Q321.1996480286273 345.7937606572821 319.32010104996823 352.1372317102563L319.32010104996823 352.1372317102563Q317.20561069897684 358.4807027632304 317.20561069897684 362.2985325636315L317.20561069897684 362.2985325636315Q317.20561069897684 368.230852715024 322.4918365764553 369.49367334131057L322.4918365764553 369.49367334131057Q324.37138355511433 369.69924879210134 324.37138355511433 371.6081636923019L324.37138355511433 371.6081636923019Q324.37138355511433 373.51707859250246 322.57994034108 375.3085218065369Q320.7884971270456 377.09996502057123 318.879582226845 376.68881411898957Z " fill="#f7f7f7" transform="matrix(1.1074033446320677,0,0,1.1074033446320677,0,-34.17619548858403)"/><path d="M553.6919733974617 371.47663357710576L553.6919733974617 371.47663357710576Q543.9368319629921 371.47663357710576 538.765431684478 365.21806392185874Q533.5940314059641 358.9888772227396 533.5940314059641 348.8223744024791L533.5940314059641 348.8223744024791Q533.5940314059641 340.8008273795569 536.3266463258607 333.1612587862976L536.3266463258607 333.1612587862976Q536.7673906677794 331.69211097990154 537.296283878082 329.45900631417965Q537.8251770883846 327.2552846045856 538.442219167071 324.28760603566565L538.442219167071 324.28760603566565Q539.2943248947806 319.2043546255354 542.8790455423868 312.44627471611375L542.8790455423868 312.44627471611375Q540.3521113153859 314.97320894311486 537.707645263873 316.5598885740226Q535.0631792123602 318.1465682049303 534.2110734846503 318.1465682049303L534.2110734846503 318.1465682049303Q532.3011813363356 318.1465682049303 530.8320335299395 316.765569266918Q529.3628857235435 315.4139532850337 529.568566416439 312.85763610190463L529.568566416439 312.85763610190463Q530.6263528370441 305.4531311576687 534.9456473878485 303.0143457990513Q539.2943248947806 300.6049433965618 546.4931491461211 298.48937055535157L546.4931491461211 298.48937055535157Q546.904510531912 298.2543069063282 547.9622969525171 298.0486262134327Q549.0200833731222 297.84294552053734 550.7242948285416 297.63726482764184L550.7242948285416 297.63726482764184Q552.3991233278332 297.19652048572306 553.5744415729499 296.7851590999322Q554.7497598180668 296.3737977141413 555.1611212038576 296.13873406511794L555.1611212038576 296.13873406511794Q568.5009832859334 273.1024964608284 585.6312467085111 257.8527422304377L585.6312467085111 257.8527422304377Q602.7615101310886 242.19162661425617 621.6841338774693 234.49329210874103Q640.6361405799779 226.76557464709796 659.2355518089515 226.76557464709796L659.2355518089515 226.76557464709796Q665.8173339816057 226.76557464709796 671.1944149530151 229.93893390891338Q676.6008788805524 233.11229317072878 676.6008788805524 238.40122527375445L676.6008788805524 238.40122527375445Q676.6008788805524 240.31111742206926 676.1601345386337 241.57458453556984L676.1601345386337 241.57458453556984Q673.6332003116325 249.39045086559665 671.4000956459105 253.5334476796334Q669.1963739363165 257.6470615375423 665.3765896396868 261.4668458341719L665.3765896396868 261.4668458341719Q663.0553361055812 263.78809936827764 660.0876575366611 263.78809936827764L660.0876575366611 263.78809936827764Q657.56072330966 263.78809936827764 657.56072330966 261.2317821851486L657.56072330966 261.2317821851486Q657.56072330966 259.35127299296164 659.0298711160561 256.58927511693713L659.0298711160561 256.58927511693713Q659.4706154579749 256.17791373114625 660.2933382295566 255.41395687182032Q661.1454439572664 254.67938296862232 662.2032303778715 253.82727724091262L662.2032303778715 253.82727724091262Q666.2286953673965 250.4482372862018 668.4618000331185 247.71562236630518Q670.6655217427125 244.95362449028067 672.1640525052364 240.72247880786014L672.1640525052364 240.72247880786014Q673.6332003116325 236.28565243254417 668.7556295943978 234.5814409771248Q663.9074418332908 232.90661247783333 657.3550426167646 232.90661247783333L657.3550426167646 232.90661247783333Q641.693927000583 232.90661247783333 625.092556788308 240.5167981149647Q608.4618036199051 248.12698375209607 592.5068584424444 262.08388791285824Q576.5225303088557 276.0407920736204 562.9769875338844 295.0809476445128L562.9769875338844 295.0809476445128Q567.6488775582238 292.7596941104071 571.968172109028 290.96733378660394Q576.3168496159603 289.17497346280084 580.5479952983808 287.6764427002769L580.5479952983808 287.6764427002769Q581.8114624118814 287.265081314486 584.4559284633942 286.41297558677627Q587.1003945149071 285.5608698590666 591.1258595044321 284.73814708748483L591.1258595044321 284.73814708748483L597.4725780280629 283.2396163249609Q607.8447615412188 280.9183627908552 616.8359461163625 279.53736385284293Q625.8271306915061 278.15636491483065 633.231635635742 278.15636491483065L633.231635635742 278.15636491483065Q646.7771784107133 278.15636491483065 652.6831525924252 282.18182990435577L652.6831525924252 282.18182990435577Q654.5930447407401 283.4452970178563 652.6831525924252 284.5030834384615L652.6831525924252 284.5030834384615Q651.4196854789246 284.9438277803803 650.7732604441104 284.9438277803803L650.7732604441104 284.9438277803803Q649.7154740235053 284.9438277803803 648.4520069100048 284.29740274556605L648.4520069100048 284.29740274556605Q644.4265419204796 281.7704685185649 636.8163562833482 281.7704685185649L636.8163562833482 281.7704685185649Q624.1229192360867 281.7704685185649 597.061216642272 289.3806541556962L597.061216642272 289.3806541556962Q591.3315401973275 290.8498019620923 583.8388863847078 294.14069304841934Q576.3168496159603 297.43158413474646 569.029876496236 301.2219854752482Q561.7135204203839 305.0417697718778 556.2189076244628 308.42080972658863L556.2189076244628 308.42080972658863Q551.9877619420422 315.4139532850337 549.6665084079366 320.46782173903597Q547.3452548738308 325.5510731491662 544.9946183835972 333.1612587862976L544.9946183835972 333.1612587862976Q542.4676841565961 340.8008273795569 542.4676841565961 347.3532265960831L542.4676841565961 347.3532265960831Q542.4676841565961 355.60983726802874 546.3756173216095 360.45802502913557Q550.2835504866229 365.33559574637036 557.9231190798821 365.33559574637036L557.9231190798821 365.33559574637036Q569.5587697065387 365.33559574637036 585.4255660156156 360.45802502913557L585.4255660156156 360.45802502913557Q601.0572986756692 355.3747736190054 615.3374153538385 347.4413754644669Q629.6175320320078 339.5079773099284 637.668462011058 331.4864302870061L637.668462011058 331.4864302870061Q640.1953962380591 328.93011310387703 641.693927000583 329.9878995244822L641.693927000583 329.9878995244822L641.8996076934785 330.63432455929643Q641.8996076934785 331.69211097990154 640.1953962380591 333.39632243532094L640.1953962380591 333.39632243532094Q631.733104873218 341.858613800162 615.866308564141 350.9379472436894L615.866308564141 350.9379472436894Q605.5235080071132 356.8733043815293 594.2992187662476 361.5158114497407Q583.074929525382 366.1877014740801 572.6145971438423 368.8321675255929Q562.1542647623027 371.47663357710576 553.6919733974617 371.47663357710576ZM640.8418212728734 376.7655656801314L640.8418212728734 376.7655656801314Q639.7840348522682 376.7655656801314 639.7840348522682 374.8556735318166L639.7840348522682 374.8556735318166Q639.7840348522682 374.41492918989775 639.9015666767799 373.68035528669975Q639.9897155451637 372.94578138350175 640.1953962380591 372.093675655792L640.1953962380591 372.093675655792L649.3041126377144 349.26311874439796L660.0876575366611 322.58339458024625Q657.56072330966 322.3777138873508 652.6831525924252 322.7009264047579Q647.8349648313184 323.02413892216504 644.4265419204796 323.64118100085136L644.4265419204796 323.64118100085136Q643.1630748069791 323.87624464987476 642.4285009037811 323.96439351825853Q641.693927000583 324.0819253427702 641.2531826586643 324.0819253427702L641.2531826586643 324.0819253427702Q639.5783541593728 324.0819253427702 638.9319291245586 322.58339458024625L638.9319291245586 322.58339458024625Q639.137609817454 321.3199274667457 641.2531826586643 320.2621410461405L641.2531826586643 320.2621410461405Q642.3109690792694 319.85077966034964 643.8094998417934 319.52756714294253Q645.2786476481893 319.2043546255354 647.3942204893996 318.79299323974453L647.3942204893996 318.79299323974453Q649.7154740235053 318.3522488978257 651.5372173034364 318.1465682049303Q653.3295776272395 317.9408875120348 654.1816833549492 317.7352068191394L654.1816833549492 317.7352068191394Q655.2394697755543 317.5295261262439 656.2972561961595 317.2944624772206Q657.3550426167646 317.08878178432514 658.8241904231606 316.8831010914297L658.8241904231606 316.8831010914297Q660.0876575366611 316.67742039853425 661.5861882991851 316.4717397056388Q663.0553361055812 316.23667605661547 664.7595475610005 315.8253146708246L664.7595475610005 315.8253146708246Q666.434376060292 313.50406113671886 669.8134160150029 307.56870399887896Q673.2218389258416 301.66272981716696 678.5107710288672 291.9075883826974L678.5107710288672 291.9075883826974Q682.7419167112878 284.0917220526706 685.3863827628006 279.53736385284293Q688.0308488143135 274.98300565301525 689.0886352349186 273.51385784661926L689.0886352349186 273.51385784661926Q690.9691444271054 270.9869236196181 693.5254616102346 270.9869236196181L693.5254616102346 270.9869236196181Q694.7889287237351 270.9869236196181 694.7889287237351 272.04471004022326L694.7889287237351 272.04471004022326Q694.7889287237351 272.2503907331187 693.73114230313 274.7773249601198L693.73114230313 274.7773249601198Q692.4676751896294 276.8928978013301 689.4999966207095 282.62257424627455Q686.5323180517895 288.3228677350911 683.1532780970787 295.0809476445128Q679.7742381423678 301.8684105100624 677.0122402663434 307.7743846917744Q674.2796253464468 313.7097418296143 673.2218389258416 316.4717397056388L673.2218389258416 316.4717397056388Q674.2796253464468 316.23667605661547 675.631241328331 316.23667605661547Q677.0122402663434 316.23667605661547 679.1278131075536 316.23667605661547L679.1278131075536 316.23667605661547Q681.4490666416593 316.23667605661547 683.4764906144858 316.35420788112714Q685.4745316311844 316.4717397056388 686.9730623937083 316.67742039853425L686.9730623937083 316.67742039853425Q689.9113580065003 317.2944624772206 689.9113580065003 318.3522488978257L689.9113580065003 318.3522488978257Q689.9113580065003 318.79299323974453 688.0308488143135 319.85077966034964L688.0308488143135 319.85077966034964Q686.9730623937083 320.2621410461405 684.0053838247884 320.70288538805937Q681.0377052558684 321.11424677385025 676.1601345386337 321.52560815964114L676.1601345386337 321.52560815964114Q674.896667425133 321.52560815964114 673.427519618737 321.6431399841528Q671.9289888562131 321.7606718086645 670.2541603569216 321.9663525015599L670.2541603569216 321.9663525015599Q663.9074418332908 332.3385360147158 652.8888332853207 356.4325600396105L652.8888332853207 356.4325600396105Q648.8927512519235 364.4834900186607 646.7771784107133 368.9203163939767Q644.661605569503 373.35714276929264 644.2208612275842 374.2092484970023L644.2208612275842 374.2092484970023Q642.3109690792694 376.7655656801314 640.8418212728734 376.7655656801314ZM696.0523958372357 310.74206326069435L696.0523958372357 310.74206326069435Q693.3197809173391 310.74206326069435 693.3197809173391 309.4785961471938L693.3197809173391 309.4785961471938Q693.3197809173391 308.42080972658863 694.9064605482469 306.4227687098901Q696.4931401791545 304.39534473706357 698.6087130203648 302.9261969306675L698.6087130203648 302.9261969306675Q703.2512200885761 299.95851836174756 705.895686140089 297.84294552053734Q708.5401521916018 295.72737267932706 712.3599364882315 290.64412126919683L712.3599364882315 290.64412126919683Q712.565617181127 291.0848656111156 712.565617181127 292.3483327246162L712.565617181127 292.3483327246162Q712.565617181127 295.0809476445128 710.332512515405 299.0182637656541Q708.128790805811 302.9261969306675 705.3667929297865 306.09955619248296Q702.6047950537619 309.2729154542983 700.4892222125517 310.125021182008L700.4892222125517 310.125021182008Q698.6087130203648 310.74206326069435 696.0523958372357 310.74206326069435ZM677.2179209592388 362.57359787034585L677.2179209592388 362.57359787034585Q675.5430924599473 362.57359787034585 674.0445616974233 361.3101307568453Q672.5754138910273 360.0466636433447 672.5754138910273 357.93109080213446L672.5754138910273 357.93109080213446Q672.5754138910273 353.49426442681846 678.7164517217627 341.62355015113866L678.7164517217627 341.62355015113866L681.0377052558684 336.9810430829272Q681.4490666416593 336.56968169713633 682.2130235009853 334.86547024171693Q682.9475974041833 333.1612587862976 684.4167452105793 330.428643866401L684.4167452105793 330.428643866401Q685.9152759731031 327.46096529748104 686.7379987446849 325.1397117633753Q687.5901044723946 322.81845822926965 688.0308488143135 320.70288538805937L688.0308488143135 320.70288538805937Q688.0308488143135 320.46782173903597 688.8535715858952 319.85077966034964Q689.705677313605 319.2043546255354 690.5577830413146 318.79299323974453L690.5577830413146 318.79299323974453L691.8212501548152 318.5873125468491Q693.5254616102346 318.5873125468491 694.6713968992235 319.2043546255354Q695.8467151443402 319.85077966034964 695.4353537585494 320.90856608095476L695.4353537585494 320.90856608095476Q693.9368229960254 324.0819253427702 692.8790365754203 326.4031788768759Q691.8212501548152 328.7244324109816 691.2042080761288 330.428643866401L691.2042080761288 330.428643866401L690.9691444271054 330.428643866401Q688.6478908929997 335.71757596942666 687.0612112620921 340.4776148621497Q685.4745316311844 345.23765375487284 685.6802123240799 349.46879943729334L685.6802123240799 349.46879943729334L685.9152759731031 355.1690929261099Q685.6802123240799 357.2846657673202 684.4167452105793 358.78319652984413L684.4167452105793 358.78319652984413Q683.5646394828696 359.40023860853046 682.0954916764736 360.3698761607518Q680.6263438700776 361.3101307568453 678.2757073798439 362.3679171774504L678.2757073798439 362.3679171774504Q678.0700266869485 362.57359787034585 677.2179209592388 362.57359787034585ZM694.5832480308396 364.0721286328698L694.5832480308396 364.0721286328698Q693.0847172683158 364.0721286328698 693.0847172683158 361.5158114497407L693.0847172683158 361.5158114497407Q693.0847172683158 359.40023860853046 694.0543548205371 356.4325600396105Q694.9946094166306 353.49426442681846 696.2580765301311 350.9379472436894L696.2580765301311 350.9379472436894Q698.167968678446 347.3532265960831 701.9877529750756 338.2445101964278L701.9877529750756 338.2445101964278Q706.4245793503916 328.3130710251907 709.3922579193115 322.28956501896704Q712.3599364882315 316.23667605661547 715.0925514081281 313.0633167948001L715.0925514081281 313.0633167948001Q718.060229977048 309.4785961471938 719.7644414324674 309.4785961471938L719.7644414324674 309.4785961471938Q720.8222278530726 309.4785961471938 721.439269931759 310.859595085206Q722.0856949665731 312.2405940232183 722.0856949665731 313.91542252250974L722.0856949665731 313.91542252250974Q722.0856949665731 315.61963397792914 721.6449506246544 316.03099536372L721.6449506246544 316.03099536372Q719.9701221253629 317.7352068191394 717.2081242493383 321.7606718086645Q714.4755093294418 325.7567538420617 712.1248728392081 329.78221883158676L712.1248728392081 329.78221883158676Q707.6880464638922 338.0388295035323 707.6880464638922 342.06429449305745L707.6880464638922 342.06429449305745Q707.6880464638922 342.47565587884833 707.8055782884038 342.9164002207671Q707.8937271567876 343.32776160655806 708.128790805811 343.73912299234894L708.128790805811 343.73912299234894Q710.6557250328121 342.47565587884833 712.7712978740224 341.2121887653478Q714.8868707152327 339.94872165184717 717.6488685912572 337.6274681177415L717.6488685912572 337.6274681177415L730.5479863314142 325.7567538420617Q732.6635591726244 323.87624464987476 734.3383876719159 322.58339458024625Q736.0425991273354 321.3199274667457 737.1003855479404 320.46782173903597L737.1003855479404 320.46782173903597Q739.2159583891507 318.99867393264 741.1258505374656 318.99867393264L741.1258505374656 318.99867393264Q742.800679036757 318.99867393264 745.1513155269906 321.11424677385025L745.1513155269906 321.11424677385025Q746.2091019475957 322.17203319445537 746.2091019475957 326.8145402626668L746.2091019475957 326.8145402626668L746.2091019475957 332.1034723656924Q746.2091019475957 332.95557809340215 746.0915701230841 333.69015199660015Q745.9740382985724 334.45410885592605 745.9740382985724 335.2768316275078L745.9740382985724 335.2768316275078Q745.9740382985724 338.0388295035323 746.7379951578984 340.03687052023093Q747.4725690610964 342.06429449305745 748.9417168674923 342.06429449305745L748.9417168674923 342.06429449305745Q749.5881419023066 342.06429449305745 750.6459283229118 341.00650807245233L750.6459283229118 341.00650807245233L756.5519025046237 334.01336451400726Q763.9564074488596 325.34539245627076 767.9818724383847 321.3199274667457Q772.0073374279099 317.2944624772206 777.09058883804 315.8253146708246L777.09058883804 315.8253146708246Q777.7076309167263 315.61963397792914 778.2365241270289 315.50210215341747Q778.7654173373314 315.4139532850337 779.2061616792503 315.4139532850337L779.2061616792503 315.4139532850337Q781.1160538275651 315.4139532850337 782.4676698094495 316.67742039853425Q783.8486687474617 317.9408875120348 783.2316266687754 320.0564603532451L783.2316266687754 320.0564603532451Q782.3795209410657 323.435500307956 780.9985220030534 327.78417781488815Q779.6175230650412 332.1034723656924 778.559736644436 334.65978954882155L778.559736644436 334.65978954882155Q776.0328024174349 339.7430409589517 776.0328024174349 342.68133657174377L776.0328024174349 342.68133657174377Q776.0328024174349 344.5912287200586 777.6194820483425 345.23765375487284Q779.2061616792503 345.85469583355916 780.792841310158 346.0897594825825Q782.3795209410657 346.295440175478 782.3795209410657 346.9124822541643L782.3795209410657 346.9124822541643Q786.6106666234863 345.4433344477683 788.7262394646965 345.4433344477683L788.7262394646965 345.4433344477683Q790.8418123059067 345.4433344477683 789.7840258853016 346.82433338578056Q788.7262394646965 348.2053323237928 785.964241588672 350.0858415159797Q783.2316266687754 351.99573366429456 779.9407355824483 353.3767326023068Q776.6498444961212 354.757731540319 774.1229102691201 354.757731540319L774.1229102691201 354.757731540319Q768.8339781660944 354.757731540319 768.8339781660944 349.02805509537455L768.8339781660944 349.02805509537455Q768.8339781660944 346.0897594825825 769.6860838938042 343.53344229945344L769.6860838938042 343.53344229945344Q772.6537624627241 332.7498974005067 772.6537624627241 329.57653813869126L772.6537624627241 329.57653813869126Q772.6537624627241 326.4031788768759 770.9495510073046 326.4031788768759L770.9495510073046 326.4031788768759Q767.129766710675 326.4031788768759 754.6713933124369 341.62355015113866L754.6713933124369 341.62355015113866Q753.3785432428083 343.12208091366256 751.7918636119006 344.79690941295405Q750.205183980993 346.5011208683734 748.324674788806 348.2053323237928L748.324674788806 348.2053323237928Q745.768357605677 350.5265858578985 743.4471040715713 353.0535200848997L743.4471040715713 353.0535200848997Q742.1836369580707 354.3169871984002 740.0680641168605 354.3169871984002L740.0680641168605 354.3169871984002Q735.6312377415444 354.3169871984002 735.1904933996256 351.14362793658483L735.1904933996256 351.14362793658483Q734.9848127067302 347.764587981874 734.8672808822186 345.56086627227995Q734.7791320138347 343.32776160655806 734.7791320138347 342.47565587884833L734.7791320138347 342.47565587884833Q734.3383876719159 336.9810430829272 734.1327069790206 335.07115093461243L734.1327069790206 335.07115093461243Q733.927026286125 333.1612587862976 732.2228148307057 333.1612587862976L732.2228148307057 333.1612587862976Q730.1072419894954 333.1612587862976 721.6449506246544 339.94872165184717L721.6449506246544 339.94872165184717Q710.2443636470213 349.02805509537455 700.724285861575 360.2523443362402L700.724285861575 360.2523443362402Q696.69882087205 364.0721286328698 694.5832480308396 364.0721286328698Z " fill="#006838" transform="matrix(1.1074033446320677,0,0,1.1074033446320677,0,-34.17619548858403)"/></g></svg>